HIERARCHY
ROOT Hips
{
	OFFSET 0.00000 0.00000 0.00000
	CHANNELS 6 Xposition Yposition Zposition Yrotation Zrotation Xrotation 
	JOINT Lumbar
	{
		OFFSET 0 0 0
		CHANNELS 3 Zrotation Xrotation Yrotation
		JOINT Neck
		{
			OFFSET 0.00 0.2701 0.00
			CHANNELS 3 Zrotation Xrotation Yrotation
			End Site
			{
				OFFSET 0.00 0.1379 0.00
			}
		}
		JOINT RightShoulder
		{
			OFFSET 0.0119 0.2289 0.1181
			CHANNELS 3 Zrotation Xrotation Yrotation
			JOINT RightElbow
			{
				OFFSET 0.00 -0.1475 0.00
				CHANNELS 2 Zrotation Yrotation
				JOINT RightWrist
				{
					OFFSET 0.00 -0.1605 0.00
					CHANNELS 2 Zrotation Xrotation
					End Site
					{
						OFFSET 0.0040 -0.1068 0.0006
					}
				}
			}
		}
		JOINT LeftShoulder
		{
			OFFSET 0.0119 0.2289 -0.1181
			CHANNELS 3 Zrotation Xrotation Yrotation
			JOINT LeftElbow
			{
				OFFSET 0.00 -0.1475 0.00
				CHANNELS 2 Zrotation Yrotation
				JOINT LeftWrist
				{
					OFFSET 0.00 -0.1605 0.00
					CHANNELS 2 Zrotation Xrotation
					End Site
					{
						OFFSET 0.0040 -0.1068 -0.0006
					}
				}
			}
		}
	}
	JOINT RightHip
	{
		OFFSET 0.0316 -0.0424 0.0458
		CHANNELS 3 Zrotation Xrotation Yrotation
		JOINT RightKnee
		{
			OFFSET 0.00 -0.2438 0.00
			CHANNELS 1 Zrotation
			JOINT RightAnkle
			{
				OFFSET 0.00 -0.2449 0.00
				CHANNELS 3 Zrotation Xrotation Yrotation
				End Site
				{
					OFFSET 0.1237 -0.0542 0.0051
				}
			}
		}
	}
	JOINT LeftHip
	{
		OFFSET 0.0316 -0.0424 -0.0458
		CHANNELS 3 Zrotation Xrotation Yrotation
		JOINT LeftKnee
		{
			OFFSET 0.00 -0.2438 0.00
			CHANNELS 1 Zrotation
			JOINT LeftAnkle
			{
				OFFSET 0.00 -0.2449 0.00
				CHANNELS 3 Zrotation Xrotation Yrotation
				End Site
				{
					OFFSET 0.1237 -0.0542 -0.0051
				}
			}
		}
	}
}
MOTION
Frames: 28
Frame Time: 0.02
0.07657 0.29568 0.23331 174.38494 0 -13.84479 -19.72025 7.96102 -2.84586 -6.21176 4.46553 -1.26568 3.96305 -18.17186 -2.79539 21.62982 110.67128 -31.56528 -7.03912 2.44331 22.96413 -22.02965 87.81781 -106.60098 -47.52337 5.51867 44.37756 -0.55195 16.35477 -117.87392 19.58188 -22.60605 -8.75139 23.40573 17.70477 3.53127 -117.83528 -34.86112 4.47044 -9.08483
0.08071 0.29278 0.22797 174.57814 0 -13.01156 -20.2153 7.69043 -2.7375 -5.07554 3.82116 -1.30094 3.52936 -17.94965 -3.51694 20.6038 110.51351 -29.95553 -7.19455 2.58946 23.70776 -22.65498 88.85515 -106.82556 -47.5641 5.54242 45.20543 -0.49702 17.04211 -118.85481 19.58193 -22.47672 -8.60851 24.27129 17.80111 2.96447 -118.67556 -35.57674 4.76385 -9.08302
0.08501 0.28956 0.22225 174.75304 0 -12.11758 -20.75241 7.38933 -2.78628 -3.80671 3.13692 -1.11983 2.81742 -17.77423 -4.18485 20.00563 110.31398 -28.46069 -7.35735 2.56656 24.33564 -23.20877 89.94863 -106.94667 -47.70134 5.55289 45.97103 -0.47908 17.68103 -120.23043 19.5829 -22.43326 -8.5766 25.16351 17.90734 2.3728 -119.54178 -36.41141 5.11178 -9.08395
0.08924 0.28647 0.21669 174.93169 0 -11.26525 -21.27768 7.11899 -2.75063 -2.58624 2.46982 -1.04141 2.22999 -17.57709 -4.88036 19.21263 110.13958 -26.92926 -7.51799 2.60075 25.00427 -23.79103 91.00423 -107.10294 -47.80024 5.56781 46.77735 -0.44269 18.3184 -121.42073 19.58349 -22.33296 -8.48006 26.04754 18.02452 1.78473 -120.40923 -37.14606 5.41541 -9.08498
0.09346 0.28344 0.21115 175.13347 0 -10.34854 -21.77089 6.77419 -2.76552 -1.41417 1.80512 -0.95062 1.65312 -17.38024 -5.55696 18.41788 109.94876 -25.33722 -7.67555 2.72282 25.7238 -24.39015 92.11859 -107.30451 -47.87422 5.58891 47.52639 -0.41264 19.05889 -122.6369 19.58382 -22.30367 -8.43806 26.91725 18.07178 1.22584 -121.22484 -38.07392 5.8008 -9.08059
0.09773 0.28021 0.2055 175.27948 0 -9.5523 -22.34076 6.57791 -2.71395 -0.11241 1.12594 -0.8317 0.98963 -17.19486 -6.26113 17.73103 109.77976 -23.89902 -7.84031 2.62007 26.31013 -24.93754 93.12098 -107.38839 -48.02345 5.59415 48.38193 -0.37829 19.57168 -123.89297 19.58496 -22.14853 -8.31157 27.82056 18.26905 0.60327 -122.1513 -38.62986 6.03017 -9.08791
0.10214 0.27653 0.19963 175.29736 0 -9.11779 -23.11944 6.80606 -2.44346 1.53714 0.42478 -0.68984 0.12717 -17.0258 -7.06807 17.22134 109.66629 -22.82849 -8.02579 1.93673 26.54947 -25.35565 93.80562 -107.18011 -48.36025 5.55938 49.54501 -0.32385 19.46692 -125.15844 19.58812 -21.62706 -7.91791 28.83022 18.87578 -0.20961 -123.40313 -38.1047 5.80216 -9.12854
0.10659 0.27265 0.19367 175.25521 0 -8.80478 -23.97242 7.18408 -2.10098 3.30757 -0.2909 -0.52565 -0.80736 -16.86772 -7.90286 16.80885 109.57732 -21.91316 -8.21757 1.03295 26.66035 -25.72485 94.37401 -106.85648 -48.76961 5.50912 50.81822 -0.26344 19.13391 -126.45105 19.59209 -20.9782 -7.43843 29.86843 19.6343 -1.08112 -124.76062 -37.20554 5.41765 -9.18053
0.111 0.26886 0.18776 175.22663 0 -8.42788 -24.78725 7.48943 -1.78988 5.00942 -1.00478 -0.37009 -1.69264 -16.7072 -8.71717 16.36261 109.48558 -20.94452 -8.40444 0.22963 26.83418 -26.119 94.99109 -106.58137 -49.14311 5.4657 52.04309 -0.20571 18.90577 -127.73382 19.59566 -20.38418 -7.00185 30.881 20.32544 -1.91281 -126.05297 -36.49375 5.11341 -9.22624
0.11549 0.26508 0.18184 175.25653 0 -8.08578 -25.62336 7.81255 -1.48896 6.77747 -1.69921 -0.21485 -2.66135 -16.53696 -9.56316 15.88692 109.3579 -19.90696 -8.60006 -0.58248 26.98293 -26.49921 95.62688 -106.31847 -49.52997 5.4226 53.2593 -0.15066 18.67275 -129.01988 19.59932 -19.79752 -6.54794 31.95015 21.00977 -2.8033 -127.41897 -35.71272 4.77249 -9.27677
0.11982 0.26122 0.17591 175.14911 0 -7.70037 -26.43055 8.1351 -1.14881 8.42961 -2.43786 -0.05475 -3.46458 -16.38967 -10.3497 15.49051 109.3106 -19.04872 -8.77909 -1.42418 27.15713 -26.89769 96.19638 -106.00481 -49.90769 5.37541 54.51949 -0.08653 18.39436 -130.30034 19.60308 -19.17477 -6.11416 32.90515 21.74462 -3.58202 -128.65575 -34.98548 4.47003 -9.31989
0.12372 0.25718 0.16998 174.69027 0 -7.16991 -27.1537 8.41598 -0.70783 9.77372 -3.28889 0.09805 -3.83678 -16.29668 -10.97401 15.28363 109.4867 -18.6436 -8.90833 -2.31249 27.415 -27.35841 96.60222 -105.57424 -50.21808 5.32014 55.88322 -0.01267 18.06333 -131.55664 19.60684 -18.39407 -5.70852 33.56074 22.57731 -4.0628 -129.51364 -34.49935 4.31266 -9.34021
0.12743 0.25306 0.16405 174.09338 0 -6.59084 -27.84213 8.69198 -0.23091 10.98812 -4.18541 0.25674 -4.03056 -16.22723 -11.53717 15.15201 109.74214 -18.41397 -9.02093 -3.21852 27.70714 -27.83878 96.94707 -105.09835 -50.52034 5.26151 57.28565 0.07259 17.69163 -132.80438 19.61119 -17.59886 -5.33589 34.09589 23.45547 -4.42458 -130.23642 -34.0803 4.1992 -9.35258
0.1312 0.24897 0.15813 173.55069 0 -6.03199 -28.53733 8.97249 0.22365 12.23449 -5.06427 0.4217 -4.27596 -16.15115 -12.12161 14.98757 109.95595 -18.10581 -9.14283 -4.10333 27.99565 -28.31164 97.32511 -104.64663 -50.84239 5.20484 58.6653 0.16232 17.32779 -134.05587 19.61472 -16.86713 -4.97776 34.67133 24.31695 -4.82392 -131.01924 -33.62821 4.0647 -9.36832
0.13508 0.24491 0.1522 173.04024 0 -5.48673 -29.2741 9.2482 0.70588 13.60089 -5.92871 0.54985 -4.64799 -16.05888 -12.7304 14.82131 110.19211 -17.79709 -9.25813 -5.05189 28.22805 -28.78004 97.67474 -104.17442 -51.10105 5.14567 60.07237 0.21277 17.00081 -135.31072 19.61857 -15.88626 -4.48689 35.30948 25.17077 -5.29381 -131.81399 -33.17054 3.9285 -9.38553
0.13868 0.24077 0.14628 172.43277 0 -4.89821 -29.91393 9.53122 1.13834 14.6826 -6.83659 0.75568 -4.7135 -16.00506 -13.2787 14.67497 110.40274 -17.53029 -9.3825 -5.86854 28.58856 -29.25894 98.0722 -103.73727 -51.48639 5.09128 61.42794 0.34609 16.5904 -136.55416 19.62444 -15.42824 -4.28804 35.78716 26.04452 -5.58932 -132.54732 -32.74951 3.80934 -9.39758
0.1416 0.23637 0.14036 171.57339 0 -4.2173 -30.30411 9.83104 1.42083 15.03017 -7.82825 1.176 -3.97173 -16.05784 -13.63145 14.56819 110.50223 -17.32674 -9.54153 -6.31881 29.28389 -29.79789 98.60322 -103.39437 -52.24404 5.04959 62.6491 0.71922 15.96006 -137.783 19.61297 -16.36561 -4.82827 35.85865 27.00224 -5.41907 -133.16939 -32.37669 3.71773 -9.39789
0.14424 0.23191 0.13446 170.62503 0 -3.4911 -30.596 10.13825 1.65127 15.09262 -8.86598 1.67458 -2.92923 -16.1473 -13.93353 14.47812 110.57727 -17.16078 -9.70922 -6.63417 30.11004 -30.34062 99.1876 -103.09109 -53.12511 5.01313 63.81285 1.17288 15.24799 -138.99687 19.60717 -17.8372 -5.67036 35.77145 27.96984 -5.08024 -133.72872 -32.0457 3.64381 -9.39319
0.14698 0.2275 0.12856 169.72904 0 -2.77512 -30.92595 10.44463 1.90904 15.26996 -9.8998 2.13538 -2.02556 -16.21586 -14.28701 14.37748 110.67712 -16.98247 -9.8693 -7.00876 30.88332 -30.85793 99.7569 -102.77965 -53.93607 4.97526 64.99158 1.58046 14.57449 -140.20871 19.61445 -19.10248 -6.41652 35.75164 28.9063 -4.82623 -134.30008 -31.72319 3.56876 -9.39026
0.14982 0.22297 0.12262 168.77674 0 -2.10131 -31.28165 10.74124 2.15704 15.49935 -10.8661 2.60293 -1.10193 -16.30312 -14.51809 14.29069 110.72132 -16.78847 -10.04428 -7.39295 31.62812 -31.47462 100.28515 -102.42645 -54.80664 4.93329 66.22056 2.02797 13.89438 -141.46088 19.55807 -20.22474 -6.99933 35.74688 29.95838 -4.53087 -134.93777 -31.29253 3.4674 -9.3889
0.1524 0.21869 0.11676 167.92374 0 -1.32946 -31.56203 11.05878 2.407 15.56122 -11.97992 3.07844 -0.15659 -16.35984 -14.99353 14.1798 110.87532 -16.63619 -10.19053 -7.72476 32.46512 -31.88667 100.91257 -102.1684 -55.58162 4.901 67.32832 2.41194 13.20795 -142.62143 19.63259 -21.7575 -7.98148 35.67556 30.76959 -4.2864 -135.42239 -31.08896 3.42267 -9.38358
0.15431 0.21507 0.1111 167.35707 0 -0.29831 -31.64788 11.4418 2.72269 15.17093 -13.51783 3.52576 0.82306 -16.32317 -16.15172 13.98224 111.33143 -16.56829 -10.25502 -7.94152 33.50376 -31.72097 101.79993 -102.18119 -56.06996 4.89555 68.13595 2.59517 12.53564 -143.56844 20.09341 -24.41836 -10.09753 35.45272 30.92738 -4.19777 -135.51425 -31.5651 3.54569 -9.36514
0.15598 0.21172 0.10551 166.89649 0 0.8298 -31.66339 11.8434 3.03335 14.63354 -15.1962 3.98343 1.80349 -16.25452 -17.55919 13.7622 111.89945 -16.54419 -10.29035 -8.10819 34.63309 -31.35344 102.78593 -102.28639 -56.45681 4.89953 68.81981 2.7127 11.85814 -144.41719 20.68099 -27.45113 -12.58572 35.17079 30.83926 -4.17263 -135.45163 -32.25639 3.72205 -9.3435
0.15776 0.20829 0.0999 166.3936 0 1.9135 -31.71827 12.23084 3.31459 14.20309 -16.79286 4.4576 2.7523 -16.20032 -18.85519 13.56291 112.42095 -16.51336 -10.33944 -8.30314 35.73618 -31.08318 103.72736 -102.3365 -56.88478 4.89816 69.54635 2.86388 11.1753 -145.28737 21.1932 -30.23087 -14.8339 34.92002 30.8546 -4.13473 -135.45152 -32.80752 3.86332 -9.32573
0.15951 0.20466 0.09427 165.86018 0 3.0002 -31.73869 12.64455 3.72682 13.59356 -18.4705 4.84795 3.84721 -16.14729 -20.13985 13.32082 112.92482 -16.42843 -10.38703 -8.48055 36.7861 -30.78082 104.66866 -102.43877 -57.33673 4.90103 70.32711 3.00176 10.52094 -146.25473 21.7801 -33.38172 -17.39007 34.64295 30.9065 -4.01872 -135.48382 -33.53871 4.05059 -9.29788
0.16128 0.20151 0.08868 165.41976 0 4.10316 -31.81518 13.0055 3.86706 13.32557 -20.00739 5.41061 4.6297 -16.08436 -21.51031 13.16097 113.4904 -16.46595 -10.43027 -8.67127 37.95973 -30.5084 105.63404 -102.45943 -57.71481 4.8978 70.96764 3.15085 9.80853 -146.99695 22.24206 -35.84374 -19.3915 34.41184 30.82226 -4.08797 -135.40999 -33.94588 4.15502 -9.28996
0.16313 0.19954 0.08319 165.18514 0 5.22667 -32.06726 13.23598 3.24584 14.04167 -21.16261 6.47831 4.58421 -15.9948 -23.03814 13.24435 114.21256 -16.82926 -10.47242 -9.02156 39.50905 -30.27392 106.63231 -102.18498 -57.89977 4.87084 71.24016 3.34541 8.92636 -147.13769 22.32285 -36.28546 -19.74801 34.29622 30.43502 -4.60876 -135.10256 -33.39951 4.01284 -9.34084
0.16502 0.19804 0.07774 165.04566 0 6.36322 -32.37836 13.40887 2.35363 15.10768 -22.16361 7.71284 4.216 -15.89628 -24.64794 13.40864 114.98867 -17.31271 -10.5105 -9.36566 41.16726 -30.09453 107.65285 -101.83439 -58.01716 4.83842 71.37855 3.5536 7.98916 -147.05596 22.27442 -36.0233 -19.53581 34.23444 29.9173 -5.32254 -134.68825 -32.51946 3.78618 -9.4112
